<?xml version="1.0" encoding="UTF-8"?>
<svg xmlns="http://www.w3.org/2000/svg" viewBox="0 0 1471 424" width="1471" height="424">
<path d="M0.25 0.25C490.42 0.25 980.58 0.25 1470.75 0.25C1470.75 141.42 1470.75 282.58 1470.75 423.75C980.58 423.75 490.42 423.75 0.25 423.75C0.25 282.58 0.25 141.42 0.25 0.25ZM653.95 117.73C653.21 118.47 652.46 119.2 651.72 119.94C650.94 119.79 650.16 119.65 649.38 119.5C645.4 114.78 645.24 108.21 642.3 103.31C642.38 102.71 642.47 102.1 642.55 101.5C641.87 100.33 641.18 99.17 640.5 98C640.35 96.83 640.21 95.67 640.06 94.5C639.7 94.2 639.34 93.89 638.98 93.59C638.32 91.06 637.67 88.53 637.01 86C635.31 79.74 633.16 73.62 631.04 67.47C629.96 64.36 629.26 60.99 627.13 58.38C616.65 45.58 596.39 50.05 590.5 64.95C588.3 70.51 589.46 83.14 589.46 89.5C589.46 100.5 589.46 111.5 589.46 122.5C589.46 128.38 588.83 134.72 589.65 140.5C594.62 140.5 599.6 140.5 604.58 140.5C606.16 135.14 605.16 127.23 605.16 121.5C605.16 109.17 605.16 96.83 605.16 84.5C605.16 80.14 603.66 69.03 607.84 66.38C608.99 65.65 610.22 65.62 611.5 65.43C617.16 67.93 617.37 75.05 619.24 80.33C622.3 88.96 625.32 97.69 628.2 106.42C629.94 111.72 631.03 117.7 633.82 122.34C634.3 123.73 634.79 125.11 635.28 126.5C636.68 127.98 638.09 129.47 639.5 130.95C639.9 131.01 640.29 131.07 640.69 131.13C640.96 131.55 641.23 131.98 641.5 132.41C643 132.89 644.5 133.37 646 133.85C647.5 134.17 649 134.49 650.5 134.81C657 134.3 663.66 131.41 666.53 125.1C667.19 123.63 667.41 121.97 667.97 120.45C669.31 116.77 670.64 112.97 671.19 109.17C671.49 108.94 671.79 108.72 672.09 108.5C672.42 107 672.74 105.5 673.07 104C674.54 101.44 674.62 98.73 675.53 95.96C677.65 89.43 679.76 82.92 681.75 76.32C683.05 72 683.98 67.11 688.5 65.41C690.17 66.39 691.83 67.37 693.5 68.34C693.92 83.23 694.35 98.11 694.77 113C695.01 114.07 695.26 115.14 695.5 116.2C695.61 116.14 695.73 116.07 695.84 116C696.8 119.36 697.85 122.82 699.67 125.81C700.17 126.63 700.95 127.22 701.53 127.97C711.02 140.37 723.55 142.26 738.5 142.28C741.81 142.28 745.2 142.47 748.5 142.21C752.5 141.89 756.5 141 760.5 140.78C764.44 140.56 768.54 141.05 772.5 141.12C782.18 141.29 791.86 141.43 801.53 141.51C817.24 141.65 834.28 145.44 846.03 132.5C846.49 131.33 846.95 130.17 847.41 129C847.77 128.83 848.14 128.67 848.5 128.5C848.99 127 849.48 125.5 849.97 124C851.83 116.22 850.92 109.25 849.74 101.5C847.47 97.43 845.16 93.04 841.12 90.4C827.17 81.3 809.07 86.7 793.5 84.83C791.42 82.72 789.34 80.61 787.27 78.5C787.09 76.5 786.91 74.5 786.73 72.5C787.45 70.7 788.17 68.9 788.88 67.09C789.65 66.36 790.43 65.64 791.2 64.91C791.96 64.42 792.73 63.93 793.5 63.45C796 63.27 798.5 63.09 801 62.91C816 62.91 831 62.91 846 62.91C847.97 62.78 849.93 62.64 851.9 62.5C852.28 59.06 852.98 53.84 852.33 50.49C852.18 49.75 851.7 49.12 851.5 48.39C851 48.33 850.5 48.27 850 48.22C848.33 48.23 846.67 48.24 845 48.25C825.21 48.34 805.42 48.42 785.63 48.5C783 49.95 780.27 51.53 778.09 53.62C770.15 61.22 769.39 75.25 772.4 85.22C773.43 88.62 776.03 91.68 778.1 94.5C782.23 97.62 786.02 100.12 791.14 101.44C795.5 102.56 800.04 102.36 804.5 102.35C812.13 102.33 819.91 101.93 827.5 102.61C828.69 103.24 829.88 103.87 831.07 104.5C832.38 106.5 833.68 108.5 834.99 110.5C835.07 112.5 835.16 114.5 835.24 116.5C833.75 118.83 832.26 121.17 830.77 123.5C825.64 126.83 819.38 125.81 813.5 125.87C804.5 125.96 795.5 126.01 786.5 126.11C781.97 126.16 776.91 126.89 772.5 125.93C772.08 121.49 773.5 118.75 773.47 114.5C773.39 105.71 769.95 97.78 763.5 91.89C761.5 90.64 759.5 89.39 757.5 88.15C750.71 86.25 741.09 85.81 734.31 87.5C734.37 92.54 734.44 97.58 734.5 102.63C740.6 104.26 746.86 102.38 752.96 104.5C754.47 106.5 755.99 108.5 757.51 110.5C757.53 112.83 757.56 115.17 757.58 117.5C755.89 119.78 754.19 122.06 752.5 124.34C747.87 126.1 743.41 125.75 738.5 125.75C733.01 125.75 727.22 126.25 721.92 124.47C707.11 119.5 708.52 98.75 708.8 86.5C708.87 83.5 708.78 80.5 708.77 77.5C709.35 75.96 709.92 74.41 710.5 72.87C712.93 70.15 715.25 67.64 718.71 66.2C722.75 64.53 727.23 64.77 731.5 64.77C737.5 64.78 743.5 64.77 749.5 64.77C752.35 64.77 759.98 65.48 762.27 64.56C763.79 63.95 762.05 64.42 763.76 63.5C763.67 58.66 763.59 53.82 763.5 48.98C758.09 47.28 751.2 48.32 745.5 48.32C733.07 48.32 720.39 47.18 709.26 53.74C707.87 54.55 706.77 55.92 705.5 56.9C702.21 56.18 701.2 54.5 698.34 53.2C690.59 49.69 682.79 50.62 675.94 55.5C674.97 56.72 673.66 57.94 672.83 59.27C669.59 64.47 668.41 72.26 666.51 78.15C663.69 86.91 660.7 95.69 658.08 104.54C656.77 109 655.79 113.44 653.95 117.73ZM795.59 213.5C794.05 213.23 791.52 212.18 790.24 213.74C788.94 215.3 789.59 221.38 789.59 223.5C789.59 229.83 789.59 236.17 789.59 242.5C789.59 246.5 789.18 250.41 790.5 254.15C791.99 254.29 793.93 254.96 795.3 253.86C796.67 252.76 796.15 250.02 796.15 248.5C796.16 244.06 795.85 239.51 796.5 235.13C799.45 232.9 802.16 232.53 805.5 234.32C807.79 240.42 805.48 247.22 806.91 253.5C809.61 254.68 810.86 254.74 813.52 253.5C814.04 250.53 813.85 247.52 813.85 244.5C813.86 238.01 813.71 232.78 809.58 227.5C807.55 226.73 805.53 225.96 803.5 225.19C801.5 225.94 799.5 226.7 797.5 227.46C796.41 225.83 797.08 227.89 796.38 226.38C795.19 223.8 796.52 217.07 795.59 213.5ZM963.77 213.5C961.71 213.16 959.24 212.18 957.87 214.42C956.76 216.23 957.49 222.21 957.49 224.5C957.49 230.83 957.49 237.17 957.49 243.5C957.49 246.72 956.87 250.48 958.02 253.5C961.86 254.55 962.36 254.91 965.5 252.25C967.83 253.02 970.17 253.78 972.5 254.55C974.45 254.05 976.21 253.68 977.75 252.26C983.72 246.75 982.36 232.89 977.5 227.17C972 224.62 970.9 225.43 965.5 227.46C964.92 222.8 964.35 218.15 963.77 213.5ZM716.21 215.44C714.31 215.44 712.4 215.44 710.5 215.44C710.17 216.53 709.73 217.36 709.56 218.5C709.34 220.02 709.95 221.66 709.49 223.14C709.12 224.28 707.33 226.15 706.67 227.5C706.94 228.45 706.97 229.21 707.42 230.12C708.08 231.47 709.35 232 709.62 233.56C710.97 241.53 706.63 247.41 713.5 254.28C715.81 254.28 718.11 254.28 720.42 254.28C721.42 247.85 720.76 248.78 716.35 245.27C716.35 240.92 716.35 236.58 716.35 232.24C719.65 230.05 720.55 230.81 720.63 226.5C719.16 225.57 717.68 224.65 716.21 223.72C716.21 220.96 716.21 218.2 716.21 215.44ZM454.5 241.47C452.22 237.55 452.21 232.32 450.54 227.94C449.63 225.55 447.44 223.94 444.69 225.22C442.99 226.02 445.08 225.32 443.5 226.4C443.57 232.19 447.52 240.49 449.34 246.18C449.97 248.15 449.89 250.64 451.04 252.41C452.21 254.22 453.73 254.48 455.72 254.5C456.44 254.01 457.06 253.89 457.64 253.19C459.84 250.5 461.62 240.98 463.5 237.09C465.25 238.65 463.68 236.58 465.12 238.21C465.81 239 465.91 240.39 466.24 241.34C467.21 244.24 468.5 250.96 470.41 253.07C471.09 253.8 471.71 253.96 472.5 254.5C474.01 254.15 475.36 254.27 476.34 252.85C477.38 251.37 477.17 249 477.76 247.31C479.46 242.48 481.07 237.67 482.34 232.71C483.06 229.94 484.23 228.39 483.52 225.5C481.9 225.28 480.63 224.68 479.01 225.54C476.96 226.64 477.13 229.45 476.71 231.38C475.92 235 475 238.85 473.5 242.18C470.81 239.26 469.42 235.21 468.05 231.42C467.39 229.58 467.11 227.31 465.5 225.96C464.83 225.4 464.25 225.36 463.5 225C457.84 229.1 459.87 237.32 454.5 241.47ZM501.5 241.3C501.06 240.71 500.34 240.35 499.95 239.72C498.76 237.79 498.38 233.04 497.69 230.63C497.25 229.09 496.83 226.19 495.2 225.38C493.56 224.56 491.88 225.26 490.24 225.5C489.26 230.38 494.24 241.37 495.73 246.71C496.27 248.64 496.3 251.24 497.61 252.88C498.92 254.51 500.6 254.55 502.5 254.42C505.71 251.05 506.71 245.96 508.14 241.53C508.44 240.6 508.49 239.27 509.03 238.46C509.4 237.91 510.09 237.65 510.5 237.14C512.8 240.98 513.67 245.16 515.19 249.39C515.7 250.79 516.18 253.25 517.67 253.98C519.05 254.66 520.08 254.21 521.5 254.11C523.18 251.83 523.42 249.44 524.31 246.76C525.83 242.2 527.26 237.67 528.55 233.04C529.03 231.35 530.42 229.27 530.27 227.48C529.99 224.34 530.18 228.62 529.5 225.18C528.06 225.08 526.41 224.8 525.11 225.64C523.31 226.8 523.34 229.64 522.93 231.47C522.09 235.21 521.25 238.8 519.5 242.2C517.17 239.07 515.57 235.02 514.27 231.31C513.6 229.39 513.51 227.15 511.64 225.85C510.88 225.32 510.34 225.36 509.5 225.05C504.95 229.3 505.06 236.35 501.5 241.3ZM547.5 241.3C547.14 240.68 546.47 240.28 546.17 239.63C545.25 237.68 544.63 232.92 543.94 230.51C543.5 228.99 543.3 226.63 541.88 225.64C540.21 224.48 538.35 225.2 536.59 225.5C535.91 228.43 536.9 229.92 537.7 232.68C539.14 237.58 540.69 242.44 542.28 247.28C542.85 249.02 542.77 251.16 543.83 252.72C544.98 254.4 546.73 254.51 548.58 254.5C549.26 253.94 549.89 253.7 550.44 252.98C551.47 251.62 553.73 243.85 554.33 241.75C554.62 240.75 554.71 239.46 555.2 238.55C555.51 237.97 556.14 237.62 556.5 237.07C559.31 240.72 559.93 244.66 561.49 248.98C562 250.38 562.28 252.96 563.71 253.8C564.69 254.38 565.47 254.17 566.5 254.39C570.22 252.23 569.28 250.77 570.5 246.97C572.28 241.41 576.65 231.54 576.5 226.08C574.84 225.19 573.1 224.35 571.22 225.76C569.71 226.89 569.86 229.25 569.45 230.88C568.52 234.55 567.66 238.32 566.5 241.91C565.99 241.52 565.29 241.39 564.82 240.94C564.09 240.23 563.82 238.98 563.44 238.07C562.47 235.8 561.31 233.48 560.47 231.19C559.34 228.14 559.42 226.77 556.5 225.01C550.67 228.11 552.64 235.35 549.1 239.85C548.66 240.41 547.99 240.77 547.5 241.3ZM604.5 227.35C602.12 225.15 600.94 224.97 597.74 225.5C595.77 230.65 596.9 240.67 596.88 246.5C596.87 248.33 596.21 251.75 597.29 253.36C598.41 255.02 600.88 254.34 602.5 254.24C605.74 248.35 601.71 240.56 604.77 234.5C607.72 232.8 609.92 232.79 612.88 234.5C614.7 238.73 613.95 243.92 613.92 248.5C613.92 250.03 613.39 252.65 614.76 253.78C616.11 254.9 617.97 254.33 619.5 254.25C620.4 252.89 619.89 254.47 620.52 253.15C621.27 251.56 620.74 249.21 620.82 247.5C621.05 243.02 620.56 238.15 622.5 234.13C625.01 232.97 626.85 233 629.5 233.73C632.08 237.76 631.69 241.83 631.67 246.5C631.66 248.52 631.05 251.54 632.2 253.34C633.08 254.72 635.15 254.46 636.5 254.53C638.67 252.54 638.24 250.35 638.23 247.5C638.19 242.33 638.55 237.14 637.5 232.06C636.5 230.47 635.5 228.88 634.5 227.29C632.83 226.57 631.17 225.86 629.5 225.14C627.27 225.55 624.61 225.93 622.71 227.29C621.52 228.15 620.75 229.17 619.5 229.96C616.87 227.65 614.96 226.13 611.5 225.19C609.17 225.91 606.83 226.63 604.5 227.35ZM656.5 225.2C653.87 226.63 651.24 228.07 648.61 229.5C646.41 236.13 646.87 242.73 648.15 249.5C650.51 252.23 653.01 253.72 656.5 254.72C657.82 254.48 659.06 254.31 660.31 253.77C660.88 253.53 661.95 252.57 662.54 252.58C663.31 252.59 663.89 253.38 664.65 253.5C663.92 255.36 663.14 257.63 661.07 258.48C655.82 260.65 652.24 254.72 648.21 261.5C651.32 267.74 659.99 267.15 665.5 264.83C666.83 263.3 668.17 261.78 669.5 260.25C670.11 258.04 671.02 255.77 671.34 253.5C672.16 247.72 671.43 241.34 671.42 235.5C671.42 232.93 672.6 227.28 670.02 225.53C669.31 225.04 668.3 225.05 667.5 224.82C666.17 225.95 664.83 227.08 663.5 228.2C661.17 227.2 658.83 226.2 656.5 225.2ZM685.5 225.2C684.13 225.97 682.75 226.73 681.38 227.5C680.52 229.17 679.66 230.83 678.8 232.5C679.36 234.66 679.93 236.82 680.5 238.98C681.98 240.39 683.4 241.63 685.51 242.03C688.15 242.53 693.48 241.55 695.44 244.01C696.52 245.36 695.11 243.9 696.06 245.5C688.14 250.11 681.36 241.26 678.06 250.5C683.34 255.2 690.87 255.24 697.5 253.71C699.1 252.64 700.71 251.57 702.31 250.5C702.31 248.83 702.31 247.17 702.31 245.5C702.33 245.14 702.78 244.9 702.85 244.54C703.35 242.01 700.08 239.35 698.5 237.97C696.52 237.29 694.61 236.79 692.5 236.63C691.16 236.53 689.32 236.99 688.07 236.39C687.05 235.89 686.86 235.23 686.1 234.5C687.47 233.74 686.4 233.92 687.65 233.39C693 231.14 698.45 236.4 701.94 229.5C698.66 224.71 690.79 224.93 685.5 225.2ZM740.5 225.02C737.83 225.75 735.17 226.49 732.5 227.23C726.25 234 725.53 244.35 731.61 251.5C735.76 254.31 739.54 254.64 744.5 254.19C746.53 252.96 748.56 251.73 750.59 250.5C748.16 242.93 741.87 249.17 737.08 246.4C736.15 245.86 735.91 245.22 735.19 244.5C735.71 244.15 735.95 243.44 736.52 243.16C738.68 242.1 748.04 243.17 751.5 242.51C752.4 239.64 751.77 243.3 752.37 240.5C753.17 236.79 750.61 231.61 748.5 228.78C745.83 227.53 743.17 226.27 740.5 225.02ZM772.5 224.98C769.66 225.82 766.81 226.66 763.97 227.5C757.25 235.21 757.25 245.24 764.5 252.61C770.89 255.2 777.18 255.42 782.37 250.5C779.18 241.67 773.91 250.19 766.94 244.5C765.21 240.27 765.47 237.06 768.5 233.64C771.97 232.88 779.81 234.56 781.79 231.29C782.38 230.32 781.88 230.63 782.38 229.5C779.87 226.27 776.44 225.65 772.5 224.98ZM845.5 225.01C842.71 225.84 839.92 226.67 837.13 227.5C835.92 229.08 834.71 230.65 833.5 232.23C831.64 239.59 831.7 246.89 837.5 252.39C843.56 255.54 850.51 255.39 855.46 250.5C853.13 243.97 850.66 247.08 845.51 246.89C843.24 246.81 841.05 245.5 839.16 244.5C839.16 242.5 839.16 240.5 839.16 238.5C839.94 236.9 840.72 235.29 841.5 233.69C845.04 232.83 852.87 234.61 854.9 231.29C855.98 229.53 854.56 231.45 855.45 229.5C852.99 226.19 849.49 225.57 845.5 225.01ZM874.5 225.01C871.83 225.76 869.17 226.5 866.5 227.25C865.43 228.34 864.36 229.42 863.29 230.5C860.57 236.49 860.71 243.51 863.38 249.5C865.09 250.85 866.79 252.19 868.5 253.54C874.19 254.99 878.81 254.51 883.5 250.9C887.9 244.3 888.05 234.77 883 228.5C880.17 227.34 877.33 226.17 874.5 225.01ZM902.5 227.47C899.4 225.21 899.27 224.95 895.3 225.5C893.14 230 894.39 241.1 894.35 246.5C894.33 249.49 894.03 251.65 895.5 254.25C896.99 254.33 898.93 254.9 900.26 253.82C901.63 252.7 901.11 250.02 901.1 248.5C901.09 243.96 900.35 238.74 901.93 234.5C905.26 232.62 907.7 233.15 911.15 234.5C911.15 240.83 911.15 247.17 911.15 253.5C913.73 254.36 914.94 254.78 917.5 253.78C917.7 253 918.17 252.31 918.31 251.52C918.5 250.53 918.24 249.49 918.28 248.5C918.49 243.76 918.23 237.26 920.5 233.34C922.5 233.34 924.5 233.34 926.5 233.34C930.99 238.37 928.3 247.87 929.43 254.27C931.12 254.27 932.81 254.27 934.5 254.27C936.11 251.44 935.68 248.75 935.68 245.5C935.68 238.4 936.08 233.72 932.25 227.5C930.67 226.75 929.08 226.01 927.5 225.26C922.66 225.63 920.97 226.82 917.5 229.91C914.14 228.03 912.63 226.08 908.5 225.17C906.5 225.94 904.5 226.71 902.5 227.47ZM997.5 228.12C994.4 225.39 994.78 224.87 990.3 225.5C988.95 227.72 989.25 229.96 989.26 232.5C989.29 237.5 989.3 242.5 989.26 247.5C989.25 249.03 988.92 250.89 989.32 252.38C989.58 253.32 990.01 253.44 990.5 254.21C992.07 254.33 993.84 254.89 995.25 253.78C997.03 252.36 996.21 248.47 996.2 246.5C996.17 241.44 995.47 237.07 999.13 233.21C1001.58 233.21 1004.04 233.21 1006.5 233.21C1007.41 231.3 1008.32 229.4 1009.23 227.5C1004.22 224.43 1002.3 225.2 997.5 228.12ZM663.68 234.5C665.15 238 665.06 242.02 663.59 245.5C659.85 247.31 657.5 247.18 654.31 244.5C652.88 240.19 652.92 236.64 656.4 233.5C659.36 232.97 661.04 233.1 663.68 234.5ZM744.82 236.5C740.83 237.64 738.68 237.85 734.7 236.5C735.05 235.49 734.79 234.93 735.55 234.04C737.02 232.3 742.62 232.77 744.15 234.34C744.71 234.92 744.69 235.76 744.82 236.5ZM877.5 233.35C879.95 237.31 880.05 241.22 878.26 245.5C874.66 247.18 872.07 247.13 869.01 244.5C867.42 240.14 867.65 236.48 871.18 233.35C873.28 233.35 875.39 233.35 877.5 233.35ZM972.5 233.72C975.28 236.98 975.22 240.45 973.99 244.5C970.95 247.05 968.81 247.17 965.26 245.5C964.21 241.67 964.21 237.74 965.5 234.03C968.04 233.08 969.86 233 972.5 233.72ZM589.81 247.21C588.04 247.21 586.26 247.21 584.48 247.21C583.49 250.13 583.45 251.2 584.5 254.07C587.45 254.91 588.08 254.97 589.81 252.5C589.81 250.74 589.81 248.98 589.81 247.21ZM826.35 247.33C824.3 247.33 822.24 247.33 820.18 247.33C820.18 249.45 820.18 251.57 820.18 253.69C822.95 254.74 824.19 254.91 826.35 252.87C826.35 251.02 826.35 249.18 826.35 247.33ZM946.5 246.97C944.11 248.81 944.18 250.1 944.5 253.05C945.5 253.61 946.5 254.16 947.5 254.72C948.6 254.36 949.7 254 950.81 253.63C950.81 251.74 950.81 249.85 950.81 247.96C949.37 247.63 947.94 247.3 946.5 246.97Z" fill="#000000" fill-rule="evenodd" stroke="#000000" stroke-width="0.25" stroke-linejoin="round"/>
<path d="M845 48.25C845.17 48.59 845.33 48.94 845.5 49.28C846.83 49.22 848.17 49.16 849.5 49.1C849.67 48.8 849.83 48.51 850 48.22C850.5 48.27 851 48.33 851.5 48.39C851.7 49.12 852.18 49.75 852.33 50.49C852.98 53.84 852.28 59.06 851.9 62.5C849.93 62.64 847.97 62.78 846 62.91C845.69 62.7 845.62 62.21 845.28 62.06C843.21 61.16 837.91 61.83 835.5 61.83C827.5 61.83 819.5 61.83 811.5 61.83C809.08 61.83 803.8 61.16 801.72 62.06C801.38 62.21 801.31 62.7 801 62.91C798.5 63.09 796 63.27 793.5 63.45C792.73 63.93 791.96 64.42 791.2 64.91C791.15 64.44 791.1 63.97 791.05 63.5C790.39 64.17 789.74 64.83 789.08 65.5C789.02 66.03 788.95 66.56 788.88 67.09C788.17 68.9 787.45 70.7 786.73 72.5C786.91 74.5 787.09 76.5 787.27 78.5C789.34 80.61 791.42 82.72 793.5 84.83C809.07 86.7 827.17 81.3 841.12 90.4C845.16 93.04 847.47 97.43 849.74 101.5C850.92 109.25 851.83 116.22 849.97 124C849.62 124.17 849.26 124.33 848.91 124.5C848.27 125.5 847.63 126.5 846.99 127.5C847.13 128 847.27 128.5 847.41 129C846.95 130.17 846.49 131.33 846.03 132.5C834.28 145.44 817.24 141.65 801.53 141.51C791.86 141.43 782.18 141.29 772.5 141.12C768.54 141.05 764.44 140.56 760.5 140.78C756.5 141 752.5 141.89 748.5 142.21C745.2 142.47 741.81 142.28 738.5 142.28C723.55 142.26 711.02 140.37 701.53 127.97C700.95 127.22 700.17 126.63 699.67 125.81C697.85 122.82 696.8 119.36 695.84 116C696.33 115.83 696.81 115.67 697.3 115.5C696.46 114.67 695.61 113.83 694.77 113C694.35 98.11 693.92 83.23 693.5 68.34C691.83 67.37 690.17 66.39 688.5 65.41C683.98 67.11 683.05 72 681.75 76.32C679.76 82.92 677.65 89.43 675.53 95.96C674.62 98.73 674.54 101.44 673.07 104C672.55 104.17 672.03 104.33 671.51 104.5C671.2 105.83 670.88 107.17 670.57 108.5C670.77 108.72 670.98 108.94 671.19 109.17C670.64 112.97 669.31 116.77 667.97 120.45C667.41 121.97 667.19 123.63 666.53 125.1C663.66 131.41 657 134.3 650.5 134.81C649 134.49 647.5 134.17 646 133.85C645.83 133.42 645.67 133 645.5 132.57C644.33 131.88 643.17 131.19 642 130.5C641.56 130.71 641.12 130.92 640.69 131.13C640.29 131.07 639.9 131.01 639.5 130.95C638.09 129.47 636.68 127.98 635.28 126.5C634.79 125.11 634.3 123.73 633.82 122.34C633.97 120.73 634.12 119.11 634.26 117.5C632.44 113.5 632.02 113.81 632.5 108.93C633.83 108.29 635.17 107.64 636.5 107C636.5 103.23 636.5 99.47 636.5 95.7C636.18 95.67 635.88 96.03 635.58 95.93C633.57 95.29 634.17 92.11 633.8 90.55C633.51 89.34 632.73 88.43 632.38 87.25C631.74 85.09 631.86 82.73 631.79 80.5C629.42 77.78 628.89 76.66 630.5 73.54C631.83 77.05 633.17 80.55 634.5 84.06C635.34 84.71 636.17 85.35 637.01 86C637.67 88.53 638.32 91.06 638.98 93.59C638.86 94.23 638.74 94.86 638.62 95.5C639.06 97.83 639.5 100.17 639.94 102.5C640.73 102.77 641.51 103.04 642.3 103.31C645.24 108.21 645.4 114.78 649.38 119.5C650.16 119.65 650.94 119.79 651.72 119.94C651.98 120.45 652.24 120.97 652.5 121.49C653.47 120.49 654.44 119.5 655.42 118.5C654.93 118.24 654.44 117.99 653.95 117.73C655.79 113.44 656.77 109 658.08 104.54C660.7 95.69 663.69 86.91 666.51 78.15C668.41 72.26 669.59 64.47 672.83 59.27C673.66 57.94 674.97 56.72 675.94 55.5C682.79 50.62 690.59 49.69 698.34 53.2C701.2 54.5 702.21 56.18 705.5 56.9C706.77 55.92 707.87 54.55 709.26 53.74C720.39 47.18 733.07 48.32 745.5 48.32C751.2 48.32 758.09 47.28 763.5 48.98C763.59 53.82 763.67 58.66 763.76 63.5C762.05 64.42 763.79 63.95 762.27 64.56C759.98 65.48 752.35 64.77 749.5 64.77C743.5 64.77 737.5 64.78 731.5 64.77C727.23 64.77 722.75 64.53 718.71 66.2C715.25 67.64 712.93 70.15 710.5 72.87C709.92 74.41 709.35 75.96 708.77 77.5C708.78 80.5 708.87 83.5 708.8 86.5C708.52 98.75 707.11 119.5 721.92 124.47C727.22 126.25 733.01 125.75 738.5 125.75C743.41 125.75 747.87 126.1 752.5 124.34C754.19 122.06 755.89 119.78 757.58 117.5C757.56 115.17 757.53 112.83 757.51 110.5C755.99 108.5 754.47 106.5 752.96 104.5C746.86 102.38 740.6 104.26 734.5 102.63C734.44 97.58 734.37 92.54 734.31 87.5C741.09 85.81 750.71 86.25 757.5 88.15C759.5 89.39 761.5 90.64 763.5 91.89C769.95 97.78 773.39 105.71 773.47 114.5C773.5 118.75 772.08 121.49 772.5 125.93C776.91 126.89 781.97 126.16 786.5 126.11C795.5 126.01 804.5 125.96 813.5 125.87C819.38 125.81 825.64 126.83 830.77 123.5C832.26 121.17 833.75 118.83 835.24 116.5C835.16 114.5 835.07 112.5 834.99 110.5C833.68 108.5 832.38 106.5 831.07 104.5C829.88 103.87 828.69 103.24 827.5 102.61C819.91 101.93 812.13 102.33 804.5 102.35C800.04 102.36 795.5 102.56 791.14 101.44C786.02 100.12 782.23 97.62 778.1 94.5C776.03 91.68 773.43 88.62 772.4 85.22C769.39 75.25 770.15 61.22 778.09 53.62C780.27 51.53 783 49.95 785.63 48.5C805.42 48.42 825.21 48.34 845 48.25ZM769.5 130C766.55 132.5 763.6 135 760.65 137.5C763.9 137.5 768.48 133.05 769.5 130Z" fill="#00b5cb" fill-rule="evenodd" stroke="#00b5cb" stroke-width="0.25" stroke-linejoin="round"/>
<path d="M795.59 213.5C796.52 217.07 795.19 223.8 796.38 226.38C797.08 227.89 796.41 225.83 797.5 227.46C799.5 226.7 801.5 225.94 803.5 225.19C805.53 225.96 807.55 226.73 809.58 227.5C813.71 232.78 813.86 238.01 813.85 244.5C813.85 247.52 814.04 250.53 813.52 253.5C810.86 254.74 809.61 254.68 806.91 253.5C805.48 247.22 807.79 240.42 805.5 234.32C802.16 232.53 799.45 232.9 796.5 235.13C795.85 239.51 796.16 244.06 796.15 248.5C796.15 250.02 796.67 252.76 795.3 253.86C793.93 254.96 791.99 254.29 790.5 254.15C789.18 250.41 789.59 246.5 789.59 242.5C789.59 236.17 789.59 229.83 789.59 223.5C789.59 221.38 788.94 215.3 790.24 213.74C791.52 212.18 794.05 213.23 795.59 213.5ZM963.77 213.5C964.35 218.15 964.92 222.8 965.5 227.46C970.9 225.43 972 224.62 977.5 227.17C982.36 232.89 983.72 246.75 977.75 252.26C976.21 253.68 974.45 254.05 972.5 254.55C970.17 253.78 967.83 253.02 965.5 252.25C962.36 254.91 961.86 254.55 958.02 253.5C956.87 250.48 957.49 246.72 957.49 243.5C957.49 237.17 957.49 230.83 957.49 224.5C957.49 222.21 956.76 216.23 957.87 214.42C959.24 212.18 961.71 213.16 963.77 213.5ZM716.21 215.44C716.21 218.2 716.21 220.96 716.21 223.72C717.68 224.65 719.16 225.57 720.63 226.5C720.55 230.81 719.65 230.05 716.35 232.24C716.35 236.58 716.35 240.92 716.35 245.27C720.76 248.78 721.42 247.85 720.42 254.28C718.11 254.28 715.81 254.28 713.5 254.28C706.63 247.41 710.97 241.53 709.62 233.56C709.35 232 708.08 231.47 707.42 230.12C706.97 229.21 706.94 228.45 706.67 227.5C707.33 226.15 709.12 224.28 709.49 223.14C709.95 221.66 709.34 220.02 709.56 218.5C709.73 217.36 710.17 216.53 710.5 215.44C712.4 215.44 714.31 215.44 716.21 215.44ZM454.5 241.47C459.87 237.32 457.84 229.1 463.5 225C464.25 225.36 464.83 225.4 465.5 225.96C467.11 227.31 467.39 229.58 468.05 231.42C469.42 235.21 470.81 239.26 473.5 242.18C475 238.85 475.92 235 476.71 231.38C477.13 229.45 476.96 226.64 479.01 225.54C480.63 224.68 481.9 225.28 483.52 225.5C484.23 228.39 483.06 229.94 482.34 232.71C481.07 237.67 479.46 242.48 477.76 247.31C477.17 249 477.38 251.37 476.34 252.85C475.36 254.27 474.01 254.15 472.5 254.5C471.71 253.96 471.09 253.8 470.41 253.07C468.5 250.96 467.21 244.24 466.24 241.34C465.91 240.39 465.81 239 465.12 238.21C463.68 236.58 465.25 238.65 463.5 237.09C461.62 240.98 459.84 250.5 457.64 253.19C457.06 253.89 456.44 254.01 455.72 254.5C453.73 254.48 452.21 254.22 451.04 252.41C449.89 250.64 449.97 248.15 449.34 246.18C447.52 240.49 443.57 232.19 443.5 226.4C445.08 225.32 442.99 226.02 444.69 225.22C447.44 223.94 449.63 225.55 450.54 227.94C452.21 232.32 452.22 237.55 454.5 241.47ZM501.5 241.3C505.06 236.35 504.95 229.3 509.5 225.05C510.34 225.36 510.88 225.32 511.64 225.85C513.51 227.15 513.6 229.39 514.27 231.31C515.57 235.02 517.17 239.07 519.5 242.2C521.25 238.8 522.09 235.21 522.93 231.47C523.34 229.64 523.31 226.8 525.11 225.64C526.41 224.8 528.06 225.08 529.5 225.18C530.18 228.62 529.99 224.34 530.27 227.48C530.42 229.27 529.03 231.35 528.55 233.04C527.26 237.67 525.83 242.2 524.31 246.76C523.42 249.44 523.18 251.83 521.5 254.11C520.08 254.21 519.05 254.66 517.67 253.98C516.18 253.25 515.7 250.79 515.19 249.39C513.67 245.16 512.8 240.98 510.5 237.14C510.09 237.65 509.4 237.91 509.03 238.46C508.49 239.27 508.44 240.6 508.14 241.53C506.71 245.96 505.71 251.05 502.5 254.42C500.6 254.55 498.92 254.51 497.61 252.88C496.3 251.24 496.27 248.64 495.73 246.71C494.24 241.37 489.26 230.38 490.24 225.5C491.88 225.26 493.56 224.56 495.2 225.38C496.83 226.19 497.25 229.09 497.69 230.63C498.38 233.04 498.76 237.79 499.95 239.72C500.34 240.35 501.06 240.71 501.5 241.3ZM547.5 241.3C547.99 240.77 548.66 240.41 549.1 239.85C552.64 235.35 550.67 228.11 556.5 225.01C559.42 226.77 559.34 228.14 560.47 231.19C561.31 233.48 562.47 235.8 563.44 238.07C563.82 238.98 564.09 240.23 564.82 240.94C565.29 241.39 565.99 241.52 566.5 241.91C567.66 238.32 568.52 234.55 569.45 230.88C569.86 229.25 569.71 226.89 571.22 225.76C573.1 224.35 574.84 225.19 576.5 226.08C576.65 231.54 572.28 241.41 570.5 246.97C569.28 250.77 570.22 252.23 566.5 254.39C565.47 254.17 564.69 254.38 563.71 253.8C562.28 252.96 562 250.38 561.49 248.98C559.93 244.66 559.31 240.72 556.5 237.07C556.14 237.62 555.51 237.97 555.2 238.55C554.71 239.46 554.62 240.75 554.33 241.75C553.73 243.85 551.47 251.62 550.44 252.98C549.89 253.7 549.26 253.94 548.58 254.5C546.73 254.51 544.98 254.4 543.83 252.72C542.77 251.16 542.85 249.02 542.28 247.28C540.69 242.44 539.14 237.58 537.7 232.68C536.9 229.92 535.91 228.43 536.59 225.5C538.35 225.2 540.21 224.48 541.88 225.64C543.3 226.63 543.5 228.99 543.94 230.51C544.63 232.92 545.25 237.68 546.17 239.63C546.47 240.28 547.14 240.68 547.5 241.3ZM604.5 227.35C606.83 226.63 609.17 225.91 611.5 225.19C614.96 226.13 616.87 227.65 619.5 229.96C620.75 229.17 621.52 228.15 622.71 227.29C624.61 225.93 627.27 225.55 629.5 225.14C631.17 225.86 632.83 226.57 634.5 227.29C635.5 228.88 636.5 230.47 637.5 232.06C638.55 237.14 638.19 242.33 638.23 247.5C638.24 250.35 638.67 252.54 636.5 254.53C635.15 254.46 633.08 254.72 632.2 253.34C631.05 251.54 631.66 248.52 631.67 246.5C631.69 241.83 632.08 237.76 629.5 233.73C626.85 233 625.01 232.97 622.5 234.13C620.56 238.15 621.05 243.02 620.82 247.5C620.74 249.21 621.27 251.56 620.52 253.15C619.89 254.47 620.4 252.89 619.5 254.25C617.97 254.33 616.11 254.9 614.76 253.78C613.39 252.65 613.92 250.03 613.92 248.5C613.95 243.92 614.7 238.73 612.88 234.5C609.92 232.79 607.72 232.8 604.77 234.5C601.71 240.56 605.74 248.35 602.5 254.24C600.88 254.34 598.41 255.02 597.29 253.36C596.21 251.75 596.87 248.33 596.88 246.5C596.9 240.67 595.77 230.65 597.74 225.5C600.94 224.97 602.12 225.15 604.5 227.35ZM656.5 225.2C658.83 226.2 661.17 227.2 663.5 228.2C664.83 227.08 666.17 225.95 667.5 224.82C668.3 225.05 669.31 225.04 670.02 225.53C672.6 227.28 671.42 232.93 671.42 235.5C671.43 241.34 672.16 247.72 671.34 253.5C671.02 255.77 670.11 258.04 669.5 260.25C668.17 261.78 666.83 263.3 665.5 264.83C659.99 267.15 651.32 267.74 648.21 261.5C652.24 254.72 655.82 260.65 661.07 258.48C663.14 257.63 663.92 255.36 664.65 253.5C663.89 253.38 663.31 252.59 662.54 252.58C661.95 252.57 660.88 253.53 660.31 253.77C659.06 254.31 657.82 254.48 656.5 254.72C653.01 253.72 650.51 252.23 648.15 249.5C646.87 242.73 646.41 236.13 648.61 229.5C651.24 228.07 653.87 226.63 656.5 225.2ZM685.5 225.2C690.79 224.93 698.66 224.71 701.94 229.5C698.45 236.4 693 231.14 687.65 233.39C686.4 233.92 687.47 233.74 686.1 234.5C686.86 235.23 687.05 235.89 688.07 236.39C689.32 236.99 691.16 236.53 692.5 236.63C694.61 236.79 696.52 237.29 698.5 237.97C700.08 239.35 703.35 242.01 702.85 244.54C702.78 244.9 702.33 245.14 702.31 245.5C702.31 247.17 702.31 248.83 702.31 250.5C700.71 251.57 699.1 252.64 697.5 253.71C690.87 255.24 683.34 255.2 678.06 250.5C681.36 241.26 688.14 250.11 696.06 245.5C695.11 243.9 696.52 245.36 695.44 244.01C693.48 241.55 688.15 242.53 685.51 242.03C683.4 241.63 681.98 240.39 680.5 238.98C679.93 236.82 679.36 234.66 678.8 232.5C679.66 230.83 680.52 229.17 681.38 227.5C682.75 226.73 684.13 225.97 685.5 225.2ZM740.5 225.02C743.17 226.27 745.83 227.53 748.5 228.78C750.61 231.61 753.17 236.79 752.37 240.5C751.77 243.3 752.4 239.64 751.5 242.51C748.04 243.17 738.68 242.1 736.52 243.16C735.95 243.44 735.71 244.15 735.19 244.5C735.91 245.22 736.15 245.86 737.08 246.4C741.87 249.17 748.16 242.93 750.59 250.5C748.56 251.73 746.53 252.96 744.5 254.19C739.54 254.64 735.76 254.31 731.61 251.5C725.53 244.35 726.25 234 732.5 227.23C735.17 226.49 737.83 225.75 740.5 225.02ZM772.5 224.98C776.44 225.65 779.87 226.27 782.38 229.5C781.88 230.63 782.38 230.32 781.79 231.29C779.81 234.56 771.97 232.88 768.5 233.64C765.47 237.06 765.21 240.27 766.94 244.5C773.91 250.19 779.18 241.67 782.37 250.5C777.18 255.42 770.89 255.2 764.5 252.61C757.25 245.24 757.25 235.21 763.97 227.5C766.81 226.66 769.66 225.82 772.5 224.98ZM845.5 225.01C849.49 225.57 852.99 226.19 855.45 229.5C854.56 231.45 855.98 229.53 854.9 231.29C852.87 234.61 845.04 232.83 841.5 233.69C840.72 235.29 839.94 236.9 839.16 238.5C839.16 240.5 839.16 242.5 839.16 244.5C841.05 245.5 843.24 246.81 845.51 246.89C850.66 247.08 853.13 243.97 855.46 250.5C850.51 255.39 843.56 255.54 837.5 252.39C831.7 246.89 831.64 239.59 833.5 232.23C834.71 230.65 835.92 229.08 837.13 227.5C839.92 226.67 842.71 225.84 845.5 225.01ZM874.5 225.01C877.33 226.17 880.17 227.34 883 228.5C888.05 234.77 887.9 244.3 883.5 250.9C878.81 254.51 874.19 254.99 868.5 253.54C866.79 252.19 865.09 250.85 863.38 249.5C860.71 243.51 860.57 236.49 863.29 230.5C864.36 229.42 865.43 228.34 866.5 227.25C869.17 226.5 871.83 225.76 874.5 225.01ZM902.5 227.47C904.5 226.71 906.5 225.94 908.5 225.17C912.63 226.08 914.14 228.03 917.5 229.91C920.97 226.82 922.66 225.63 927.5 225.26C929.08 226.01 930.67 226.75 932.25 227.5C936.08 233.72 935.68 238.4 935.68 245.5C935.68 248.75 936.11 251.44 934.5 254.27C932.81 254.27 931.12 254.27 929.43 254.27C928.3 247.87 930.99 238.37 926.5 233.34C924.5 233.34 922.5 233.34 920.5 233.34C918.23 237.26 918.49 243.76 918.28 248.5C918.24 249.49 918.5 250.53 918.31 251.52C918.17 252.31 917.7 253 917.5 253.78C914.94 254.78 913.73 254.36 911.15 253.5C911.15 247.17 911.15 240.83 911.15 234.5C907.7 233.15 905.26 232.62 901.93 234.5C900.35 238.74 901.09 243.96 901.1 248.5C901.11 250.02 901.63 252.7 900.26 253.82C898.93 254.9 896.99 254.33 895.5 254.25C894.03 251.65 894.33 249.49 894.35 246.5C894.39 241.1 893.14 230 895.3 225.5C899.27 224.95 899.4 225.21 902.5 227.47ZM997.5 228.12C1002.3 225.2 1004.22 224.43 1009.23 227.5C1008.32 229.4 1007.41 231.3 1006.5 233.21C1004.04 233.21 1001.58 233.21 999.13 233.21C995.47 237.07 996.17 241.44 996.2 246.5C996.21 248.47 997.03 252.36 995.25 253.78C993.84 254.89 992.07 254.33 990.5 254.21C990.01 253.44 989.58 253.32 989.32 252.38C988.92 250.89 989.25 249.03 989.26 247.5C989.3 242.5 989.29 237.5 989.26 232.5C989.25 229.96 988.95 227.72 990.3 225.5C994.78 224.87 994.4 225.39 997.5 228.12ZM663.68 234.5C661.04 233.1 659.36 232.97 656.4 233.5C652.92 236.64 652.88 240.19 654.31 244.5C657.5 247.18 659.85 247.31 663.59 245.5C665.06 242.02 665.15 238 663.68 234.5ZM744.82 236.5C744.69 235.76 744.71 234.92 744.15 234.34C742.62 232.77 737.02 232.3 735.55 234.04C734.79 234.93 735.05 235.49 734.7 236.5C738.68 237.85 740.83 237.64 744.82 236.5ZM877.5 233.35C875.39 233.35 873.28 233.35 871.18 233.35C867.65 236.48 867.42 240.14 869.01 244.5C872.07 247.13 874.66 247.18 878.26 245.5C880.05 241.22 879.95 237.31 877.5 233.35ZM972.5 233.72C969.86 233 968.04 233.08 965.5 234.03C964.21 237.74 964.21 241.67 965.26 245.5C968.81 247.17 970.95 247.05 973.99 244.5C975.22 240.45 975.28 236.98 972.5 233.72ZM589.81 247.21C589.81 248.98 589.81 250.74 589.81 252.5C588.08 254.97 587.45 254.91 584.5 254.07C583.45 251.2 583.49 250.13 584.48 247.21C586.26 247.21 588.04 247.21 589.81 247.21ZM826.35 247.33C826.35 249.18 826.35 251.02 826.35 252.87C824.19 254.91 822.95 254.74 820.18 253.69C820.18 251.57 820.18 249.45 820.18 247.33C822.24 247.33 824.3 247.33 826.35 247.33ZM946.5 246.97C947.94 247.3 949.37 247.63 950.81 247.96C950.81 249.85 950.81 251.74 950.81 253.63C949.7 254 948.6 254.36 947.5 254.72C946.5 254.16 945.5 253.61 944.5 253.05C944.18 250.1 944.11 248.81 946.5 246.97Z" fill="#fefefe" fill-rule="evenodd" stroke="#fefefe" stroke-width="0.25" stroke-linejoin="round"/>
<path d="M845 48.25C846.67 48.24 848.33 48.23 850 48.22C849.83 48.51 849.67 48.8 849.5 49.1C848.17 49.16 846.83 49.22 845.5 49.28C845.33 48.94 845.17 48.59 845 48.25ZM637.01 86C636.17 85.35 635.34 84.71 634.5 84.06C633.17 80.55 631.83 77.05 630.5 73.54C628.89 76.66 629.42 77.78 631.79 80.5C631.86 82.73 631.74 85.09 632.38 87.25C632.73 88.43 633.51 89.34 633.8 90.55C634.17 92.11 633.57 95.29 635.58 95.93C635.88 96.03 636.18 95.67 636.5 95.7C636.5 99.47 636.5 103.23 636.5 107C635.17 107.64 633.83 108.29 632.5 108.93C632.02 113.81 632.44 113.5 634.26 117.5C634.12 119.11 633.97 120.73 633.82 122.34C631.03 117.7 629.94 111.72 628.2 106.42C625.32 97.69 622.3 88.96 619.24 80.33C617.37 75.05 617.16 67.93 611.5 65.43C610.22 65.62 608.99 65.65 607.84 66.38C603.66 69.03 605.16 80.14 605.16 84.5C605.16 96.83 605.16 109.17 605.16 121.5C605.16 127.23 606.16 135.14 604.58 140.5C599.6 140.5 594.62 140.5 589.65 140.5C588.83 134.72 589.46 128.38 589.46 122.5C589.46 111.5 589.46 100.5 589.46 89.5C589.46 83.14 588.3 70.51 590.5 64.95C596.39 50.05 616.65 45.58 627.13 58.38C629.26 60.99 629.96 64.36 631.04 67.47C633.16 73.62 635.31 79.74 637.01 86ZM846 62.91C831 62.91 816 62.91 801 62.91C801.31 62.7 801.38 62.21 801.72 62.06C803.8 61.16 809.08 61.83 811.5 61.83C819.5 61.83 827.5 61.83 835.5 61.83C837.91 61.83 843.21 61.16 845.28 62.06C845.62 62.21 845.69 62.7 846 62.91ZM791.2 64.91C790.43 65.64 789.65 66.36 788.88 67.09C788.95 66.56 789.02 66.03 789.08 65.5C789.74 64.83 790.39 64.17 791.05 63.5C791.1 63.97 791.15 64.44 791.2 64.91ZM638.98 93.59C639.34 93.89 639.7 94.2 640.06 94.5C640.21 95.67 640.35 96.83 640.5 98C641.18 99.17 641.87 100.33 642.55 101.5C642.47 102.1 642.38 102.71 642.3 103.31C641.51 103.04 640.73 102.77 639.94 102.5C639.5 100.17 639.06 97.83 638.62 95.5C638.74 94.86 638.86 94.23 638.98 93.59ZM673.07 104C672.74 105.5 672.42 107 672.09 108.5C671.79 108.72 671.49 108.94 671.19 109.17C670.98 108.94 670.77 108.72 670.57 108.5C670.88 107.17 671.2 105.83 671.51 104.5C672.03 104.33 672.55 104.17 673.07 104ZM694.77 113C695.61 113.83 696.46 114.67 697.3 115.5C696.81 115.67 696.33 115.83 695.84 116C695.73 116.07 695.61 116.14 695.5 116.2C695.26 115.14 695.01 114.07 694.77 113ZM653.95 117.73C654.44 117.99 654.93 118.24 655.42 118.5C654.44 119.5 653.47 120.49 652.5 121.49C652.24 120.97 651.98 120.45 651.72 119.94C652.46 119.2 653.21 118.47 653.95 117.73ZM849.97 124C849.48 125.5 848.99 127 848.5 128.5C848.14 128.67 847.77 128.83 847.41 129C847.27 128.5 847.13 128 846.99 127.5C847.63 126.5 848.27 125.5 848.91 124.5C849.26 124.33 849.62 124.17 849.97 124ZM646 133.85C644.5 133.37 643 132.89 641.5 132.41C641.23 131.98 640.96 131.55 640.69 131.13C641.12 130.92 641.56 130.71 642 130.5C643.17 131.19 644.33 131.88 645.5 132.57C645.67 133 645.83 133.42 646 133.85ZM769.5 130C768.48 133.05 763.9 137.5 760.65 137.5C763.6 135 766.55 132.5 769.5 130Z" fill="#0098ad" fill-rule="evenodd" stroke="#0098ad" stroke-width="0.25" stroke-linejoin="round"/>
</svg>